<?xml version="1.0" encoding="utf-8"?>
<!-- Generator: Adobe Illustrator 28.1.0, SVG Export Plug-In . SVG Version: 6.00 Build 0)  -->
<svg version="1.1" id="Livello_1" xmlns="http://www.w3.org/2000/svg" xmlns:xlink="http://www.w3.org/1999/xlink" x="0px" y="0px"
	 viewBox="0 0 1920 1080" style="enable-background:new 0 0 1920 1080;" xml:space="preserve">
<style type="text/css">
	.st0{fill:#00FF00;}
	.st1{fill:#1D1D1B;}
	.st2{font-family:'BDGeminis';}
	.st3{font-size:41.2273px;}
	.st4{font-size:57.223px;}
	.st5{fill:#132A19;stroke:#00FF00;stroke-width:0.8097;stroke-miterlimit:10;}
	.st6{fill:#FFFFFF;stroke:#00FF00;stroke-width:0.8097;stroke-miterlimit:10;}
</style>
<g>
	<g>
		<rect x="578.26" y="248.74" class="st0" width="263" height="391"/>
	</g>
	<g>
		<text transform="matrix(0 -1.388 1 0 610.9797 588.2134)" class="st1 st2 st3">0123456789</text>
		<text transform="matrix(0.9139 0 0 1 578.1243 295.2437)" class="st1 st2 st4">0123456789</text>
		<text transform="matrix(0 -1.388 1 0 686.8547 588.2104)" class="st1 st2 st3">0123456789</text>
		<text transform="matrix(0 -1.388 1 0 761.8938 588.2158)" class="st1 st2 st3">0123456789</text>
		<text transform="matrix(0 -1.388 1 0 841.6829 588.2104)" class="st1 st2 st3">0123456789</text>
		<text transform="matrix(0 -1.388 1 0 648.261 588.2104)" class="st1 st2 st3">9876543210</text>
		<text transform="matrix(0.9007 0 0 1 578.1243 639.189)" class="st1 st2 st4">9876543210</text>
		<text transform="matrix(0 -1.388 1 0 724.136 588.2104)" class="st1 st2 st3">9876543210</text>
		<text transform="matrix(0 -1.388 1 0 802.2375 588.2158)" class="st1 st2 st3">9876543210</text>
	</g>
</g>
<g>
	<g>
		<path class="st5" d="M750.7,394.62h-95.58c-3.72,0-7.26-0.99-10.23-2.79v29.9l30.7,0.19c11.29,0,20.53,8.87,20.53,20.16v33.86
			h25.93c6.33,0,11.54,5.21,11.54,11.54v63.82h17.12c11.29,0,20.16-9.24,20.16-20.47V415.09
			C770.86,403.8,761.99,394.62,750.7,394.62z"/>
		<path class="st5" d="M809,346.18v232.46c0,11.29-9.24,20.47-20.53,20.47H644.89V421.72l30.7,0.19c11.29,0,20.53,8.87,20.53,20.16
			v33.86h-23.88v95.89h49.8c6.33,0,11.54-5.21,11.54-11.54v-8.99h17.12c11.29,0,20.16-9.24,20.16-20.47V415.09
			c0-11.29-8.87-20.47-20.16-20.47h-95.58c-3.72,0-7.26-0.99-10.23-2.79v-66.18h143.58C799.76,325.65,809,334.89,809,346.18z"/>
	</g>
	<g>
		<path class="st6" d="M621.32,524c-7.5,0-13.65,6.14-13.65,13.65c0,7.5,6.14,13.64,13.65,13.64h23.57V524H621.32z M750.7,394.62
			h-95.58c-3.72,0-7.26-0.99-10.23-2.79c-6.14-3.54-10.23-10.17-10.23-17.68V326.7c0-11.29,9.18-20.53,20.47-20.53h76.47
			c7.5,0,13.65-6.14,13.65-13.65c0-7.5-6.14-13.27-13.65-13.27H628.14c-11.23,0-20.47,8.87-20.47,20.1v102.09
			c0,11.29,9.24,20.16,20.47,20.16l16.75,0.12l30.7,0.19c11.29,0,20.53,8.87,20.53,20.16v61.78c0,11.29-9.24,20.16-20.53,20.16
			h-3.35v27.29h78.46c11.29,0,20.16-9.24,20.16-20.47V415.09C770.86,403.8,761.99,394.62,750.7,394.62z"/>
	</g>
</g>
</svg>
